<svg width="30" height="30" viewBox="0 0 30 30" fill="none" xmlns="http://www.w3.org/2000/svg">
<path d="M4.02422 15.6633L12.4617 24.1008C12.6376 24.2767 12.8762 24.3756 13.125 24.3756C13.3738 24.3756 13.6124 24.2767 13.7883 24.1008C13.9642 23.9249 14.063 23.6863 14.063 23.4375C14.063 23.1888 13.9642 22.9502 13.7883 22.7743L6.95039 15.9375H25.3125C25.5611 15.9375 25.7996 15.8388 25.9754 15.6629C26.1512 15.4871 26.25 15.2487 26.25 15C26.25 14.7514 26.1512 14.5129 25.9754 14.3371C25.7996 14.1613 25.5611 14.0625 25.3125 14.0625H6.95039L13.7883 7.22581C13.9642 7.0499 14.063 6.81131 14.063 6.56253C14.063 6.31375 13.9642 6.07516 13.7883 5.89925C13.6124 5.72334 13.3738 5.62451 13.125 5.62451C12.8762 5.62451 12.6376 5.72334 12.4617 5.89925L4.02422 14.3368C3.93705 14.4238 3.8679 14.5272 3.82072 14.641C3.77355 14.7548 3.74926 14.8768 3.74926 15C3.74926 15.1232 3.77355 15.2452 3.82072 15.359C3.8679 15.4729 3.93705 15.5762 4.02422 15.6633Z" fill="#020B12"/>
</svg>
