<svg width="22" height="25" viewBox="0 0 22 25" fill="none" xmlns="http://www.w3.org/2000/svg">
<path d="M8.55556 22.619H13.4444C13.4444 23.9286 12.3444 25 11 25C9.65556 25 8.55556 23.9286 8.55556 22.619ZM22 20.2381V21.4286H0V20.2381L2.44444 17.8571V10.7143C2.44444 7.02381 4.88889 3.80952 8.55556 2.7381V2.38095C8.55556 1.07143 9.65556 0 11 0C12.3444 0 13.4444 1.07143 13.4444 2.38095V2.7381C17.1111 3.80952 19.5556 7.02381 19.5556 10.7143V17.8571L22 20.2381ZM17.1111 10.7143C17.1111 7.38095 14.4222 4.7619 11 4.7619C7.57778 4.7619 4.88889 7.38095 4.88889 10.7143V19.0476H17.1111V10.7143Z" fill="black"/>
</svg>
