<svg width="10" height="14" viewBox="0 0 10 14" fill="none" xmlns="http://www.w3.org/2000/svg">
<path d="M8.88889 0H1.11111C0.816426 0 0.533811 0.118002 0.325437 0.328047C0.117063 0.538092 0 0.822974 0 1.12002V13.4403C4.93315e-05 13.5402 0.0266303 13.6383 0.0769846 13.7244C0.127339 13.8105 0.199632 13.8814 0.286361 13.9299C0.37309 13.9783 0.471096 14.0024 0.570207 13.9998C0.669319 13.9972 0.765924 13.9678 0.85 13.9149L5 11.3003L9.15069 13.9149C9.23476 13.9677 9.33129 13.9968 9.4303 13.9994C9.52931 14.0019 9.62719 13.9777 9.71381 13.9293C9.80043 13.8809 9.87264 13.8101 9.92295 13.7241C9.97327 13.6381 9.99987 13.5401 10 13.4403V1.12002C10 0.822974 9.88294 0.538092 9.67456 0.328047C9.46619 0.118002 9.18357 0 8.88889 0ZM8.88889 12.4301L5.29375 10.1656C5.20545 10.11 5.10343 10.0805 4.99931 10.0805C4.89518 10.0805 4.79316 10.11 4.70486 10.1656L1.11111 12.4301V1.12002H8.88889V12.4301Z" fill="#020B12"/>
</svg>
