<svg width="16" height="16" viewBox="0 0 16 16" fill="none" xmlns="http://www.w3.org/2000/svg">
<path d="M12 0.03125C12.1693 0.03125 12.3312 0.0932992 12.4502 0.203125C12.5691 0.312864 12.6357 0.46121 12.6357 0.615234V1.26172H14.667C15.0129 1.2618 15.344 1.38918 15.5879 1.61426C15.8318 1.83944 15.9688 2.14463 15.9688 2.46191V14.7695C15.9687 15.0867 15.8318 15.3911 15.5879 15.6162C15.3439 15.8414 15.013 15.9687 14.667 15.9688H1.33301C0.987039 15.9687 0.656061 15.8414 0.412109 15.6162C0.168239 15.3911 0.0313359 15.0867 0.03125 14.7695V2.46191C0.03125 2.14463 0.168162 1.83944 0.412109 1.61426C0.656046 1.38918 0.98711 1.2618 1.33301 1.26172H3.36426V0.615234C3.3643 0.46121 3.43092 0.312864 3.5498 0.203125C3.66881 0.093299 3.83073 0.03125 4 0.03125C4.16927 0.03125 4.33119 0.0932991 4.4502 0.203125C4.56908 0.312865 4.6357 0.46121 4.63574 0.615234V1.26172H11.3643V0.615234C11.3643 0.46121 11.4309 0.312864 11.5498 0.203125C11.6688 0.0932992 11.8307 0.03125 12 0.03125ZM1.30176 14.8008H14.6982V6.12305H1.30176V14.8008ZM4.33301 11.1084C4.59071 11.1084 4.83801 11.2026 5.01953 11.3701C5.20091 11.5376 5.30176 11.7644 5.30176 12C5.30176 12.1757 5.24563 12.3476 5.13965 12.4941C5.03355 12.6407 4.88226 12.7554 4.70508 12.8232C4.52775 12.891 4.33195 12.9096 4.14355 12.875C3.9553 12.8404 3.78273 12.7547 3.64746 12.6299C3.51221 12.505 3.42002 12.3462 3.38281 12.1738C3.34564 12.0013 3.36451 11.8218 3.4375 11.6592C3.51051 11.4966 3.63463 11.3571 3.79395 11.2588C3.95325 11.1605 4.14099 11.1085 4.33301 11.1084ZM8 11.1084C8.25758 11.1084 8.50405 11.2027 8.68555 11.3701C8.86698 11.5376 8.96875 11.7643 8.96875 12C8.96875 12.1756 8.91255 12.3476 8.80664 12.4941C8.70048 12.6408 8.54841 12.7554 8.37109 12.8232C8.19385 12.891 7.99883 12.9096 7.81055 12.875C7.62228 12.8404 7.44976 12.7547 7.31445 12.6299C7.17922 12.5051 7.08702 12.3462 7.0498 12.1738C7.01264 12.0013 7.0315 11.8218 7.10449 11.6592C7.17751 11.4966 7.30164 11.357 7.46094 11.2588C7.62029 11.1606 7.80795 11.1084 8 11.1084ZM11.667 11.1084C11.9245 11.1085 12.1711 11.2027 12.3525 11.3701C12.534 11.5376 12.6357 11.7643 12.6357 12C12.6357 12.1757 12.5787 12.3476 12.4727 12.4941C12.3665 12.6408 12.2154 12.7554 12.0381 12.8232C11.8609 12.891 11.6658 12.9095 11.4775 12.875C11.2892 12.8404 11.1158 12.7548 10.9805 12.6299C10.8453 12.5051 10.754 12.3461 10.7168 12.1738C10.6796 12.0013 10.6985 11.8218 10.7715 11.6592C10.8445 11.4966 10.9687 11.357 11.1279 11.2588C11.2872 11.1607 11.475 11.1084 11.667 11.1084ZM8 8.03125C8.25752 8.03125 8.50406 8.12563 8.68555 8.29297C8.86692 8.46039 8.96869 8.68725 8.96875 8.92285C8.96875 9.09865 8.91277 9.27135 8.80664 9.41797C8.70048 9.56462 8.5484 9.67928 8.37109 9.74707C8.19391 9.81471 7.99876 9.8324 7.81055 9.79785C7.62223 9.76327 7.44978 9.67759 7.31445 9.55273C7.17916 9.42785 7.08699 9.26915 7.0498 9.09668C7.01266 8.92433 7.03164 8.74556 7.10449 8.58301C7.17748 8.42036 7.30162 8.28091 7.46094 8.18262C7.62033 8.0843 7.80787 8.03125 8 8.03125ZM11.667 8.03125C11.9245 8.03133 12.1711 8.1256 12.3525 8.29297C12.5339 8.46039 12.6357 8.68725 12.6357 8.92285C12.6357 9.09865 12.5788 9.27135 12.4727 9.41797C12.3665 9.56447 12.2153 9.67932 12.0381 9.74707C11.8609 9.81476 11.6658 9.83235 11.4775 9.79785C11.2892 9.76326 11.1158 9.67767 10.9805 9.55273C10.8453 9.42789 10.754 9.26904 10.7168 9.09668C10.6796 8.92428 10.6986 8.7456 10.7715 8.58301C10.8445 8.42031 10.9686 8.28092 11.1279 8.18262C11.2873 8.08435 11.4749 8.03125 11.667 8.03125ZM1.30176 4.9541H14.6982V2.43066H12.6357V3.07715C12.6357 3.23115 12.5691 3.37954 12.4502 3.48926C12.3312 3.59906 12.1693 3.66113 12 3.66113C11.8307 3.66113 11.6688 3.59906 11.5498 3.48926C11.4309 3.37954 11.3643 3.23115 11.3643 3.07715V2.43066H4.63574V3.07715C4.63568 3.23115 4.56906 3.37954 4.4502 3.48926C4.3312 3.59906 4.16925 3.66113 4 3.66113C3.83075 3.66113 3.6688 3.59906 3.5498 3.48926C3.43094 3.37954 3.36432 3.23115 3.36426 3.07715V2.43066H1.30176V4.9541Z" fill="white" stroke="#C7C7C7" stroke-width="0.0625"/>
</svg>
