<svg width="26" height="26" viewBox="0 0 26 26" fill="none" xmlns="http://www.w3.org/2000/svg">
<g clip-path="url(#clip0_2003_2882)">
<path d="M6.12955 11.9187L4.53705 15.5023C2.52638 20.0242 1.52213 22.2851 2.61955 23.3825C3.71696 24.4799 5.97571 23.4746 10.4975 21.465L14.0834 19.8703C16.8101 18.6581 18.174 18.0525 18.3907 16.8836C18.6074 15.7147 17.5522 14.6595 15.4419 12.5503L13.4507 10.558C11.3415 8.44767 10.2863 7.3925 9.11738 7.61025C7.94846 7.82692 7.34288 9.19084 6.13063 11.9176M7.04171 11.3748L14.625 18.9582M4.87505 16.7915L9.20838 21.1248M17.3334 8.6665L20.5834 5.4165M15.3801 2.1665C15.8135 2.88909 16.159 4.7665 14.0834 6.49984M23.8334 10.6198C23.1108 10.1864 21.2334 9.84084 19.5 11.9165M19.5 2.1665V2.18817M23.8334 6.49984V6.5215M22.75 14.0832V14.1048M11.9167 3.24984V3.2715" stroke="#BF5700" stroke-width="2.5" stroke-linecap="round" stroke-linejoin="round"/>
</g>
<defs>
<clipPath id="clip0_2003_2882">
<rect width="26" height="26" fill="white"/>
</clipPath>
</defs>
</svg>
