<svg width="31" height="31" viewBox="0 0 31 31" fill="none" xmlns="http://www.w3.org/2000/svg">
<path d="M24.5417 20.6667L25.6655 5.50896C25.7265 4.79969 25.5064 4.09483 25.0528 3.5462C24.5991 2.99758 23.9482 2.64907 23.2401 2.57573C22.532 2.5024 21.8234 2.71011 21.2669 3.15413C20.7105 3.59815 20.3507 4.24295 20.265 4.94967L19.3751 11.625M10.3334 14.2083L9.41244 8.68129C9.29728 8.00399 8.9246 7.39748 8.37241 6.98871C7.82023 6.57994 7.13133 6.4006 6.44992 6.48822C5.7685 6.57583 5.14739 6.92362 4.71657 7.45879C4.28576 7.99395 4.07864 8.67501 4.13857 9.35942L5.16673 20.6667M15.5001 16.7917V14.8542C15.5001 14.169 15.2279 13.5119 14.7434 13.0275C14.259 12.543 13.6019 12.2708 12.9167 12.2708C12.2316 12.2708 11.5745 12.543 11.09 13.0275C10.6056 13.5119 10.3334 14.169 10.3334 14.8542V19.375" stroke="#020B12" stroke-width="2" stroke-linecap="round" stroke-linejoin="round"/>
<path d="M20.6667 16.7917V14.2083C20.6667 13.5232 20.3945 12.8661 19.91 12.3816C19.4256 11.8972 18.7685 11.625 18.0833 11.625C17.3982 11.625 16.7411 11.8972 16.2566 12.3816C15.7722 12.8661 15.5 13.5232 15.5 14.2083V16.7917" stroke="#020B12" stroke-width="2" stroke-linecap="round" stroke-linejoin="round"/>
<path d="M24.5415 20.6667C23.8492 25.8333 20.2041 28.4167 14.854 28.4167C9.50392 28.4167 5.1665 25.8333 5.1665 20.6667" stroke="#020B12" stroke-width="2"/>
<path d="M17.6855 21.9583H14.2083C13.5232 21.9583 12.8661 21.6862 12.3816 21.2017C11.8972 20.7172 11.625 20.0601 11.625 19.375C11.625 18.6898 11.8972 18.0328 12.3816 17.5483C12.8661 17.0638 13.5232 16.7917 14.2083 16.7917H19.375C22.2296 16.7917 25.1875 19.375 23.8958 23.25" stroke="#020B12" stroke-width="2" stroke-linecap="round" stroke-linejoin="round"/>
</svg>
