<svg width="16" height="16" viewBox="0 0 16 16" fill="none" xmlns="http://www.w3.org/2000/svg">
<path d="M10.6667 16L5.33333 14.1333L1.2 15.7333C0.903704 15.8519 0.62963 15.8187 0.377778 15.6338C0.125926 15.4489 0 15.2006 0 14.8889V2.44444C0 2.25185 0.0557037 2.08148 0.167111 1.93333C0.278518 1.78519 0.430222 1.67407 0.622222 1.6L5.33333 0L10.6667 1.86667L14.8 0.266667C15.0963 0.148148 15.3704 0.18163 15.6222 0.367111C15.8741 0.552593 16 0.800593 16 1.11111V13.5556C16 13.7481 15.9446 13.9185 15.8338 14.0667C15.723 14.2148 15.571 14.3259 15.3778 14.4L10.6667 16ZM9.77778 13.8222V3.42222L6.22222 2.17778V12.5778L9.77778 13.8222ZM11.5556 13.8222L14.2222 12.9333V2.4L11.5556 3.42222V13.8222ZM1.77778 13.6L4.44444 12.5778V2.17778L1.77778 3.06667V13.6Z" fill="white"/>
</svg>
