<svg width="16" height="18" viewBox="0 0 16 18" fill="none" xmlns="http://www.w3.org/2000/svg">
<path d="M13.3333 18C12.5926 18 11.963 17.7375 11.4444 17.2125C10.9259 16.6875 10.6667 16.05 10.6667 15.3C10.6667 15.21 10.6889 15 10.7333 14.67L4.48889 10.98C4.25185 11.205 3.97778 11.3814 3.66667 11.5092C3.35556 11.637 3.02222 11.7006 2.66667 11.7C1.92593 11.7 1.2963 11.4375 0.777778 10.9125C0.259259 10.3875 0 9.75 0 9C0 8.25 0.259259 7.6125 0.777778 7.0875C1.2963 6.5625 1.92593 6.3 2.66667 6.3C3.02222 6.3 3.35556 6.3639 3.66667 6.4917C3.97778 6.6195 4.25185 6.7956 4.48889 7.02L10.7333 3.33C10.7037 3.225 10.6853 3.1239 10.6782 3.0267C10.6711 2.9295 10.6673 2.8206 10.6667 2.7C10.6667 1.95 10.9259 1.3125 11.4444 0.7875C11.963 0.2625 12.5926 0 13.3333 0C14.0741 0 14.7037 0.2625 15.2222 0.7875C15.7407 1.3125 16 1.95 16 2.7C16 3.45 15.7407 4.0875 15.2222 4.6125C14.7037 5.1375 14.0741 5.4 13.3333 5.4C12.9778 5.4 12.6444 5.3361 12.3333 5.2083C12.0222 5.0805 11.7481 4.9044 11.5111 4.68L5.26667 8.37C5.2963 8.475 5.31496 8.5764 5.32267 8.6742C5.33037 8.772 5.33393 8.8806 5.33333 9C5.33274 9.1194 5.32919 9.2283 5.32267 9.3267C5.31615 9.4251 5.29748 9.5262 5.26667 9.63L11.5111 13.32C11.7481 13.095 12.0222 12.9189 12.3333 12.7917C12.6444 12.6645 12.9778 12.6006 13.3333 12.6C14.0741 12.6 14.7037 12.8625 15.2222 13.3875C15.7407 13.9125 16 14.55 16 15.3C16 16.05 15.7407 16.6875 15.2222 17.2125C14.7037 17.7375 14.0741 18 13.3333 18ZM13.3333 16.2C13.5852 16.2 13.7964 16.1139 13.9671 15.9417C14.1378 15.7695 14.2228 15.5556 14.2222 15.3C14.2216 15.0444 14.1363 14.8308 13.9662 14.6592C13.7961 14.4876 13.5852 14.4012 13.3333 14.4C13.0815 14.3988 12.8705 14.4852 12.7004 14.6592C12.5304 14.8332 12.445 15.0468 12.4444 15.3C12.4439 15.5532 12.5292 15.7671 12.7004 15.9417C12.8717 16.1163 13.0827 16.2024 13.3333 16.2ZM2.66667 9.9C2.91852 9.9 3.12978 9.8136 3.30044 9.6408C3.47111 9.468 3.55615 9.2544 3.55556 9C3.55496 8.7456 3.46963 8.532 3.29956 8.3592C3.12948 8.1864 2.91852 8.1 2.66667 8.1C2.41481 8.1 2.20385 8.1864 2.03378 8.3592C1.8637 8.532 1.77837 8.7456 1.77778 9C1.77719 9.2544 1.86252 9.4683 2.03378 9.6417C2.20504 9.8151 2.416 9.9012 2.66667 9.9ZM13.9671 3.3408C14.1372 3.1692 14.2222 2.9556 14.2222 2.7C14.2222 2.4444 14.1369 2.2308 13.9662 2.0592C13.7956 1.8876 13.5846 1.8012 13.3333 1.8C13.0821 1.7988 12.8711 1.8852 12.7004 2.0592C12.5298 2.2332 12.4444 2.4468 12.4444 2.7C12.4444 2.9532 12.5298 3.1671 12.7004 3.3417C12.8711 3.5163 13.0821 3.6024 13.3333 3.6C13.5846 3.5976 13.7959 3.5112 13.9671 3.3408Z" fill="white"/>
</svg>
