<svg width="42" height="38" viewBox="0 0 42 38" fill="none" xmlns="http://www.w3.org/2000/svg">
<mask id="path-1-inside-1_2309_2044" fill="white">
<rect x="12" width="7.99989" height="7.78378" rx="1"/>
</mask>
<rect x="12" width="7.99989" height="7.78378" rx="1" stroke="#9A9A9A" stroke-width="3" mask="url(#path-1-inside-1_2309_2044)"/>
<mask id="path-2-inside-2_2309_2044" fill="white">
<rect x="22" width="7.99989" height="7.78378" rx="1"/>
</mask>
<rect x="22" width="7.99989" height="7.78378" rx="1" stroke="#9A9A9A" stroke-width="3" mask="url(#path-2-inside-2_2309_2044)"/>
<mask id="path-3-inside-3_2309_2044" fill="white">
<rect x="12" y="10.2162" width="7.99989" height="7.78378" rx="1"/>
</mask>
<rect x="12" y="10.2162" width="7.99989" height="7.78378" rx="1" stroke="#9A9A9A" stroke-width="3" mask="url(#path-3-inside-3_2309_2044)"/>
<path d="M25.75 10.25V17.25M22.25 13.8056H29.25" stroke="#9A9A9A" stroke-width="1.5" stroke-linecap="round"/>
<path d="M3.7793 30.9922V30.4766C3.7793 29.1602 4.12305 28.1348 4.81055 27.4004C5.49805 26.6621 6.35938 26.293 7.39453 26.293C8.43359 26.293 9.24023 26.5723 9.81445 27.1309C10.3887 27.6895 10.6895 28.3633 10.7168 29.1523V29.2109H9.56836V29.1523C9.55273 28.6367 9.36719 28.1973 9.01172 27.834C8.66016 27.4668 8.12109 27.2832 7.39453 27.2832C6.68359 27.2832 6.0957 27.5527 5.63086 28.0918C5.16992 28.627 4.93945 29.4219 4.93945 30.4766V30.9922C4.93945 31.9883 5.16992 32.7695 5.63086 33.3359C6.0918 33.9023 6.67969 34.1855 7.39453 34.1855C8.09375 34.1855 8.61719 34.002 8.96484 33.6348C9.3125 33.2637 9.51172 32.8242 9.5625 32.3164L9.56836 32.2578H10.7168L10.7109 32.3164C10.6328 33.1016 10.3203 33.7754 9.77344 34.3379C9.22656 34.8965 8.43359 35.1758 7.39453 35.1758C6.35938 35.1758 5.49805 34.8086 4.81055 34.0742C4.12305 33.3359 3.7793 32.3086 3.7793 30.9922ZM12.0938 35V28.7656H13.1016L13.1484 29.5684H13.1836C13.3438 29.3066 13.5547 29.0781 13.8164 28.8828C14.082 28.6875 14.3965 28.5898 14.7598 28.5898C14.8457 28.5898 14.9355 28.5996 15.0293 28.6191C15.127 28.6387 15.1953 28.6562 15.2344 28.6719V29.709C15.1562 29.6934 15.0723 29.6816 14.9824 29.6738C14.8965 29.666 14.8008 29.6621 14.6953 29.6621C14.332 29.6621 14.0234 29.7559 13.7695 29.9434C13.5156 30.1309 13.3281 30.3613 13.207 30.6348V35H12.0938ZM15.791 31.9766V31.7891C15.791 30.8477 16.0527 30.0801 16.5762 29.4863C17.0996 28.8887 17.793 28.5898 18.6562 28.5898C19.5195 28.5898 20.1836 28.8691 20.6484 29.4277C21.1172 29.9824 21.3516 30.7344 21.3516 31.6836V32.1406H16.4766V31.2559H20.2266V31.168C20.2266 30.6992 20.0996 30.3047 19.8457 29.9844C19.5918 29.6641 19.2051 29.5039 18.6855 29.5039C18.1035 29.5039 17.6641 29.7246 17.3672 30.166C17.0742 30.6074 16.9277 31.1484 16.9277 31.7891V31.9766C16.9277 32.6172 17.082 33.1582 17.3906 33.5996C17.7031 34.041 18.1855 34.2617 18.8379 34.2617C19.2402 34.2617 19.5859 34.1758 19.875 34.0039C20.1641 33.832 20.3984 33.6289 20.5781 33.3945L21.2988 33.9746C21.0996 34.2676 20.7891 34.541 20.3672 34.7949C19.9492 35.0488 19.4395 35.1758 18.8379 35.1758C17.8535 35.1758 17.0996 34.8789 16.5762 34.2852C16.0527 33.6875 15.791 32.918 15.791 31.9766ZM22.3477 33.166C22.3477 32.5332 22.6016 32.041 23.1094 31.6895C23.6211 31.334 24.2715 31.1562 25.0605 31.1562H26.502V30.7109C26.502 30.3438 26.4023 30.0469 26.2031 29.8203C26.0039 29.5898 25.6621 29.4746 25.1777 29.4746C24.6934 29.4746 24.3457 29.5723 24.1348 29.7676C23.9277 29.9629 23.8242 30.1895 23.8242 30.4473V30.4766H22.7168V30.4473C22.7168 29.9512 22.9414 29.5176 23.3906 29.1465C23.8398 28.7754 24.4453 28.5898 25.207 28.5898C25.9727 28.5898 26.5645 28.7676 26.9824 29.123C27.4043 29.4785 27.6152 30.0078 27.6152 30.7109V33.5938C27.6152 33.8477 27.6348 34.0879 27.6738 34.3145C27.7129 34.5371 27.7695 34.7344 27.8438 34.9062V35H26.7656C26.707 34.9023 26.6543 34.7734 26.6074 34.6133C26.5645 34.4531 26.5371 34.2949 26.5254 34.1387C26.377 34.3965 26.1348 34.625 25.7988 34.8242C25.4668 35.0195 25.0371 35.1172 24.5098 35.1172C23.9121 35.1172 23.4023 34.9492 22.9805 34.6133C22.5586 34.2773 22.3477 33.7949 22.3477 33.166ZM23.4609 33.1074C23.4609 33.459 23.5664 33.7344 23.7773 33.9336C23.9883 34.1289 24.3145 34.2266 24.7559 34.2266C25.2012 34.2266 25.6035 34.0781 25.9629 33.7812C26.3223 33.4844 26.502 33.1699 26.502 32.8379V31.9531H25.1777C24.6152 31.9531 24.1875 32.0566 23.8945 32.2637C23.6055 32.4707 23.4609 32.752 23.4609 33.1074ZM28.4648 29.6211V28.7656H32.0742V29.6211H28.4648ZM29.5957 33.4531V29.2812V29.1055V27.3125H30.709V33.4531C30.709 33.7266 30.7637 33.9219 30.873 34.0391C30.9863 34.1562 31.1641 34.2148 31.4062 34.2148C31.5156 34.2148 31.623 34.2031 31.7285 34.1797C31.8379 34.1562 31.9492 34.125 32.0625 34.0859V35C31.957 35.0469 31.8203 35.0879 31.6523 35.123C31.4883 35.1582 31.3066 35.1758 31.1074 35.1758C30.6465 35.1758 30.2793 35.0371 30.0059 34.7598C29.7324 34.4824 29.5957 34.0469 29.5957 33.4531ZM32.8652 31.9766V31.7891C32.8652 30.8477 33.127 30.0801 33.6504 29.4863C34.1738 28.8887 34.8672 28.5898 35.7305 28.5898C36.5938 28.5898 37.2578 28.8691 37.7227 29.4277C38.1914 29.9824 38.4258 30.7344 38.4258 31.6836V32.1406H33.5508V31.2559H37.3008V31.168C37.3008 30.6992 37.1738 30.3047 36.9199 29.9844C36.666 29.6641 36.2793 29.5039 35.7598 29.5039C35.1777 29.5039 34.7383 29.7246 34.4414 30.166C34.1484 30.6074 34.002 31.1484 34.002 31.7891V31.9766C34.002 32.6172 34.1562 33.1582 34.4648 33.5996C34.7773 34.041 35.2598 34.2617 35.9121 34.2617C36.3145 34.2617 36.6602 34.1758 36.9492 34.0039C37.2383 33.832 37.4727 33.6289 37.6523 33.3945L38.373 33.9746C38.1738 34.2676 37.8633 34.541 37.4414 34.7949C37.0234 35.0488 36.5137 35.1758 35.9121 35.1758C34.9277 35.1758 34.1738 34.8789 33.6504 34.2852C33.127 33.6875 32.8652 32.918 32.8652 31.9766Z" fill="#9A9A9A"/>
</svg>
