<svg width="42" height="38" viewBox="0 0 42 38" fill="none" xmlns="http://www.w3.org/2000/svg">
<path d="M24.9402 4.61999L20.0602 6.61999C19.7254 6.75225 19.4212 6.95185 19.1666 7.20642C18.9121 7.461 18.7125 7.76514 18.5802 8.09999L16.5802 12.98C16.5474 13.0636 16.5489 13.1567 16.5845 13.2392C16.6201 13.3216 16.6869 13.3866 16.7702 13.42C16.8509 13.4499 16.9396 13.4499 17.0202 13.42L21.9002 11.42C22.2351 11.2877 22.5392 11.0881 22.7938 10.8336C23.0484 10.579 23.248 10.2748 23.3802 9.93999L25.3802 5.05999C25.4131 4.97643 25.4115 4.88326 25.3759 4.80082C25.3403 4.71839 25.2736 4.65338 25.1902 4.61999C25.1096 4.59013 25.0209 4.59013 24.9402 4.61999ZM21.0002 9.99999C20.8024 9.99999 20.6091 9.94134 20.4446 9.83146C20.2802 9.72158 20.152 9.5654 20.0763 9.38268C20.0006 9.19995 19.9808 8.99888 20.0194 8.8049C20.058 8.61092 20.1532 8.43274 20.2931 8.29289C20.433 8.15303 20.6111 8.05779 20.8051 8.01921C20.9991 7.98062 21.2002 8.00043 21.3829 8.07611C21.5656 8.1518 21.7218 8.27997 21.8317 8.44442C21.9416 8.60887 22.0002 8.80221 22.0002 8.99999C22.0002 9.26521 21.8949 9.51956 21.7073 9.7071C21.5198 9.89464 21.2654 9.99999 21.0002 9.99999Z" fill="#9A9A9A"/>
<path d="M21 18C19.22 18 17.4799 17.4722 15.9999 16.4832C14.5198 15.4943 13.3663 14.0887 12.6851 12.4442C12.0039 10.7996 11.8257 8.99002 12.1729 7.24419C12.5202 5.49836 13.3774 3.89471 14.636 2.63604C15.8947 1.37737 17.4984 0.520203 19.2442 0.172936C20.99 -0.17433 22.7996 0.00389951 24.4442 0.685088C26.0887 1.36628 27.4943 2.51983 28.4832 3.99987C29.4722 5.47991 30 7.21997 30 9C30 11.3869 29.0518 13.6761 27.364 15.364C25.6761 17.0518 23.3869 18 21 18ZM21 1.5C19.5166 1.5 18.0666 1.93987 16.8332 2.76398C15.5999 3.58809 14.6386 4.75943 14.0709 6.12988C13.5032 7.50032 13.3547 9.00832 13.6441 10.4632C13.9335 11.918 14.6478 13.2544 15.6967 14.3033C16.7456 15.3522 18.082 16.0665 19.5368 16.3559C20.9917 16.6453 22.4997 16.4968 23.8701 15.9291C25.2406 15.3614 26.4119 14.4001 27.236 13.1668C28.0601 11.9334 28.5 10.4834 28.5 9C28.5 7.01088 27.7098 5.10322 26.3033 3.6967C24.8968 2.29018 22.9891 1.5 21 1.5Z" fill="#9A9A9A"/>
<path d="M1.8457 35V26.4688H7.3125V27.418H2.99414V30.125H6.76758V31.0742H2.99414V34.0508H7.37109V35H1.8457ZM7.89258 35L10.2832 31.5547H10.3594L12.1406 28.7656H13.4004L11.127 32.1289H11.0449L9.15234 35H7.89258ZM8.00977 28.7656H9.29883L11.0742 31.5547H11.1328L13.5176 35H12.2344L10.3418 32.1289H10.2891L8.00977 28.7656ZM14.502 37.4375V28.7656H15.5098L15.5566 29.5742H15.5918C15.752 29.3203 15.998 29.1035 16.3301 28.9238C16.666 28.7402 17.0566 28.6484 17.502 28.6484C18.3027 28.6484 18.9434 28.9453 19.4238 29.5391C19.9043 30.1289 20.1445 30.8789 20.1445 31.7891V31.9766C20.1445 32.8828 19.9043 33.6328 19.4238 34.2266C18.9434 34.8203 18.3027 35.1172 17.502 35.1172C17.0566 35.1172 16.6777 35.0391 16.3652 34.8828C16.0527 34.7266 15.8027 34.5195 15.6152 34.2617V37.4375H14.502ZM15.6152 33.1367C15.7402 33.4102 15.9434 33.6562 16.2246 33.875C16.5098 34.0898 16.8535 34.1973 17.2559 34.1973C17.8613 34.1973 18.3047 33.9844 18.5859 33.5586C18.8672 33.1289 19.0078 32.6016 19.0078 31.9766V31.7891C19.0078 31.1602 18.8672 30.6328 18.5859 30.207C18.3047 29.7773 17.8613 29.5625 17.2559 29.5625C16.8535 29.5625 16.5098 29.6719 16.2246 29.8906C15.9434 30.1055 15.7402 30.3516 15.6152 30.6289V33.1367ZM21.5566 35V26H22.6699V35H21.5566ZM24.082 31.9766V31.7891C24.082 30.8477 24.3535 30.0801 24.8965 29.4863C25.4395 28.8887 26.1641 28.5898 27.0703 28.5898C27.9766 28.5898 28.7012 28.8887 29.2441 29.4863C29.7871 30.0801 30.0586 30.8477 30.0586 31.7891V31.9766C30.0586 32.918 29.7871 33.6875 29.2441 34.2852C28.7012 34.8789 27.9766 35.1758 27.0703 35.1758C26.1641 35.1758 25.4395 34.8789 24.8965 34.2852C24.3535 33.6875 24.082 32.918 24.082 31.9766ZM25.2188 31.7891V31.9766C25.2188 32.6133 25.373 33.1523 25.6816 33.5938C25.9941 34.0352 26.457 34.2559 27.0703 34.2559C27.6836 34.2559 28.1445 34.0352 28.4531 33.5938C28.7617 33.1523 28.916 32.6133 28.916 31.9766V31.7891C28.916 31.1484 28.7617 30.6074 28.4531 30.166C28.1445 29.7246 27.6836 29.5039 27.0703 29.5039C26.457 29.5039 25.9941 29.7246 25.6816 30.166C25.373 30.6074 25.2188 31.1484 25.2188 31.7891ZM31.4238 35V28.7656H32.4316L32.4785 29.5684H32.5137C32.6738 29.3066 32.8848 29.0781 33.1465 28.8828C33.4121 28.6875 33.7266 28.5898 34.0898 28.5898C34.1758 28.5898 34.2656 28.5996 34.3594 28.6191C34.457 28.6387 34.5254 28.6562 34.5645 28.6719V29.709C34.4863 29.6934 34.4023 29.6816 34.3125 29.6738C34.2266 29.666 34.1309 29.6621 34.0254 29.6621C33.6621 29.6621 33.3535 29.7559 33.0996 29.9434C32.8457 30.1309 32.6582 30.3613 32.5371 30.6348V35H31.4238ZM35.1211 31.9766V31.7891C35.1211 30.8477 35.3828 30.0801 35.9062 29.4863C36.4297 28.8887 37.123 28.5898 37.9863 28.5898C38.8496 28.5898 39.5137 28.8691 39.9785 29.4277C40.4473 29.9824 40.6816 30.7344 40.6816 31.6836V32.1406H35.8066V31.2559H39.5566V31.168C39.5566 30.6992 39.4297 30.3047 39.1758 29.9844C38.9219 29.6641 38.5352 29.5039 38.0156 29.5039C37.4336 29.5039 36.9941 29.7246 36.6973 30.166C36.4043 30.6074 36.2578 31.1484 36.2578 31.7891V31.9766C36.2578 32.6172 36.4121 33.1582 36.7207 33.5996C37.0332 34.041 37.5156 34.2617 38.168 34.2617C38.5703 34.2617 38.916 34.1758 39.2051 34.0039C39.4941 33.832 39.7285 33.6289 39.9082 33.3945L40.6289 33.9746C40.4297 34.2676 40.1191 34.541 39.6973 34.7949C39.2793 35.0488 38.7695 35.1758 38.168 35.1758C37.1836 35.1758 36.4297 34.8789 35.9062 34.2852C35.3828 33.6875 35.1211 32.918 35.1211 31.9766Z" fill="#9A9A9A"/>
</svg>
