<svg width="42" height="38" viewBox="0 0 42 38" fill="none" xmlns="http://www.w3.org/2000/svg">
<path d="M21 18C19.22 18 17.4799 17.4722 15.9999 16.4832C14.5198 15.4943 13.3663 14.0887 12.6851 12.4442C12.0039 10.7996 11.8257 8.99002 12.1729 7.24419C12.5202 5.49836 13.3774 3.89471 14.636 2.63604C15.8947 1.37737 17.4984 0.520203 19.2442 0.172936C20.99 -0.17433 22.7996 0.00389951 24.4442 0.685088C26.0887 1.36628 27.4943 2.51983 28.4832 3.99987C29.4722 5.47991 30 7.21997 30 9C30 11.3869 29.0518 13.6761 27.364 15.364C25.6761 17.0518 23.3869 18 21 18ZM21 1.5C19.5166 1.5 18.0666 1.93987 16.8332 2.76398C15.5999 3.58809 14.6386 4.75943 14.0709 6.12988C13.5032 7.50032 13.3547 9.00832 13.6441 10.4632C13.9335 11.918 14.6478 13.2544 15.6967 14.3033C16.7456 15.3522 18.082 16.0665 19.5368 16.3559C20.9917 16.6453 22.4997 16.4968 23.8701 15.9291C25.2406 15.3614 26.4119 14.4001 27.236 13.1668C28.0601 11.9334 28.5 10.4834 28.5 9C28.5 7.01088 27.7098 5.10322 26.3033 3.6967C24.8968 2.29018 22.9891 1.5 21 1.5Z" fill="#9A9A9A"/>
<path d="M4.88086 35V26.4688H7.76953C8.72656 26.4688 9.46094 26.7051 9.97266 27.1777C10.4883 27.6504 10.7461 28.2793 10.7461 29.0645C10.7461 29.8496 10.4883 30.4824 9.97266 30.9629C9.46094 31.4434 8.72656 31.6836 7.76953 31.6836H6.0293V35H4.88086ZM6.0293 30.7344H7.76953C8.44531 30.7344 8.91797 30.5723 9.1875 30.248C9.46094 29.9238 9.59766 29.5293 9.59766 29.0645C9.59766 28.5996 9.46094 28.209 9.1875 27.8926C8.91797 27.5762 8.44531 27.418 7.76953 27.418H6.0293V30.7344ZM11.9121 35V28.7656H12.9199L12.9668 29.5684H13.002C13.1621 29.3066 13.373 29.0781 13.6348 28.8828C13.9004 28.6875 14.2148 28.5898 14.5781 28.5898C14.6641 28.5898 14.7539 28.5996 14.8477 28.6191C14.9453 28.6387 15.0137 28.6562 15.0527 28.6719V29.709C14.9746 29.6934 14.8906 29.6816 14.8008 29.6738C14.7148 29.666 14.6191 29.6621 14.5137 29.6621C14.1504 29.6621 13.8418 29.7559 13.5879 29.9434C13.334 30.1309 13.1465 30.3613 13.0254 30.6348V35H11.9121ZM15.6094 31.9766V31.7891C15.6094 30.8477 15.8809 30.0801 16.4238 29.4863C16.9668 28.8887 17.6914 28.5898 18.5977 28.5898C19.5039 28.5898 20.2285 28.8887 20.7715 29.4863C21.3145 30.0801 21.5859 30.8477 21.5859 31.7891V31.9766C21.5859 32.918 21.3145 33.6875 20.7715 34.2852C20.2285 34.8789 19.5039 35.1758 18.5977 35.1758C17.6914 35.1758 16.9668 34.8789 16.4238 34.2852C15.8809 33.6875 15.6094 32.918 15.6094 31.9766ZM16.7461 31.7891V31.9766C16.7461 32.6133 16.9004 33.1523 17.209 33.5938C17.5215 34.0352 17.9844 34.2559 18.5977 34.2559C19.2109 34.2559 19.6719 34.0352 19.9805 33.5938C20.2891 33.1523 20.4434 32.6133 20.4434 31.9766V31.7891C20.4434 31.1484 20.2891 30.6074 19.9805 30.166C19.6719 29.7246 19.2109 29.5039 18.5977 29.5039C17.9844 29.5039 17.5215 29.7246 17.209 30.166C16.9004 30.6074 16.7461 31.1484 16.7461 31.7891ZM23.2617 35V28.0039C23.2617 27.3125 23.4512 26.7871 23.8301 26.4277C24.2129 26.0645 24.7324 25.8828 25.3887 25.8828C25.5176 25.8828 25.6465 25.8906 25.7754 25.9062C25.9082 25.9219 26.0352 25.9453 26.1562 25.9766L26.0918 26.8789C26.0059 26.8633 25.9121 26.8496 25.8105 26.8379C25.7129 26.8262 25.6133 26.8203 25.5117 26.8203C25.1484 26.8203 24.8672 26.9199 24.668 27.1191C24.4727 27.3145 24.375 27.6094 24.375 28.0039V29.1289V29.2578V35H23.2617ZM22.2305 29.6211V28.7656H23.6777H23.959H25.7461V29.6211H22.2305ZM26.6074 35V28.7656H27.7207V35H26.6074ZM26.4785 26.9141C26.4785 26.7305 26.5371 26.5762 26.6543 26.4512C26.7754 26.3223 26.9453 26.2578 27.1641 26.2578C27.3828 26.2578 27.5508 26.3223 27.668 26.4512C27.7891 26.5762 27.8496 26.7305 27.8496 26.9141C27.8496 27.1016 27.7891 27.2598 27.668 27.3887C27.5508 27.5137 27.3828 27.5762 27.1641 27.5762C26.9453 27.5762 26.7754 27.5137 26.6543 27.3887C26.5371 27.2598 26.4785 27.1016 26.4785 26.9141ZM29.5605 35V26H30.6738V35H29.5605ZM32.0859 31.9766V31.7891C32.0859 30.8477 32.3477 30.0801 32.8711 29.4863C33.3945 28.8887 34.0879 28.5898 34.9512 28.5898C35.8145 28.5898 36.4785 28.8691 36.9434 29.4277C37.4121 29.9824 37.6465 30.7344 37.6465 31.6836V32.1406H32.7715V31.2559H36.5215V31.168C36.5215 30.6992 36.3945 30.3047 36.1406 29.9844C35.8867 29.6641 35.5 29.5039 34.9805 29.5039C34.3984 29.5039 33.959 29.7246 33.6621 30.166C33.3691 30.6074 33.2227 31.1484 33.2227 31.7891V31.9766C33.2227 32.6172 33.377 33.1582 33.6855 33.5996C33.998 34.041 34.4805 34.2617 35.1328 34.2617C35.5352 34.2617 35.8809 34.1758 36.1699 34.0039C36.459 33.832 36.6934 33.6289 36.873 33.3945L37.5938 33.9746C37.3945 34.2676 37.084 34.541 36.6621 34.7949C36.2441 35.0488 35.7344 35.1758 35.1328 35.1758C34.1484 35.1758 33.3945 34.8789 32.8711 34.2852C32.3477 33.6875 32.0859 32.918 32.0859 31.9766Z" fill="#9A9A9A"/>
</svg>
