<svg width="42" height="39" viewBox="0 0 42 39" fill="none" xmlns="http://www.w3.org/2000/svg">
<path d="M18.7344 17.2189V12.2345C18.7344 11.7538 18.9253 11.2928 19.2652 10.9529C19.6052 10.613 20.0662 10.422 20.5469 10.422H21.4531C21.9338 10.422 22.3948 10.613 22.7348 10.9529C23.0747 11.2928 23.2656 11.7538 23.2656 12.2345V17.2189M15.683 17.2189C14.6155 17.2189 13.75 16.3308 13.75 15.2342V7.25738C13.75 6.65472 14.0173 6.08378 14.475 5.70769L19.792 1.34138C20.1317 1.06006 20.5589 0.906128 21 0.906128C21.4411 0.906128 21.8683 1.06006 22.208 1.34138L27.5241 5.70769C27.9827 6.08378 28.25 6.65472 28.25 7.25738V15.2342C28.25 16.3308 27.3845 17.2189 26.317 17.2189H15.683Z" stroke="#9A9A9A" stroke-width="1.58594" stroke-linecap="round" stroke-linejoin="round"/>
<path d="M5.60156 35.125V26.5938H6.75V30.25H11.1387V26.5938H12.2871V35.125H11.1387V31.1992H6.75V35.125H5.60156ZM13.7871 32.1016V31.9141C13.7871 30.9727 14.0586 30.2051 14.6016 29.6113C15.1445 29.0137 15.8691 28.7148 16.7754 28.7148C17.6816 28.7148 18.4062 29.0137 18.9492 29.6113C19.4922 30.2051 19.7637 30.9727 19.7637 31.9141V32.1016C19.7637 33.043 19.4922 33.8125 18.9492 34.4102C18.4062 35.0039 17.6816 35.3008 16.7754 35.3008C15.8691 35.3008 15.1445 35.0039 14.6016 34.4102C14.0586 33.8125 13.7871 33.043 13.7871 32.1016ZM14.9238 31.9141V32.1016C14.9238 32.7383 15.0781 33.2773 15.3867 33.7188C15.6992 34.1602 16.1621 34.3809 16.7754 34.3809C17.3887 34.3809 17.8496 34.1602 18.1582 33.7188C18.4668 33.2773 18.6211 32.7383 18.6211 32.1016V31.9141C18.6211 31.2734 18.4668 30.7324 18.1582 30.291C17.8496 29.8496 17.3887 29.6289 16.7754 29.6289C16.1621 29.6289 15.6992 29.8496 15.3867 30.291C15.0781 30.7324 14.9238 31.2734 14.9238 31.9141ZM21.1289 35.125V28.8906H22.1367L22.1836 29.6992H22.2188C22.4453 29.4102 22.7188 29.1836 23.0391 29.0195C23.3594 28.8555 23.7168 28.7734 24.1113 28.7734C24.5371 28.7734 24.9043 28.8574 25.2129 29.0254C25.5215 29.1895 25.7559 29.457 25.916 29.8281H25.9512C26.2168 29.457 26.5117 29.1895 26.8359 29.0254C27.1641 28.8574 27.5371 28.7734 27.9551 28.7734C28.6113 28.7734 29.125 28.9551 29.4961 29.3184C29.8672 29.6777 30.0527 30.2832 30.0527 31.1348V35.125H28.9395V31.123C28.9395 30.6191 28.8301 30.2578 28.6113 30.0391C28.3926 29.8203 28.082 29.7109 27.6797 29.7109C27.332 29.7109 27.0273 29.8066 26.7656 29.998C26.5078 30.1895 26.3027 30.4355 26.1504 30.7363V35.125H25.0312V31.123C25.0312 30.6191 24.9219 30.2578 24.7031 30.0391C24.4844 29.8203 24.1758 29.7109 23.7773 29.7109C23.4297 29.7109 23.125 29.8066 22.8633 29.998C22.6055 30.1895 22.3984 30.4355 22.2422 30.7363V35.125H21.1289ZM31.3652 32.1016V31.9141C31.3652 30.9727 31.627 30.2051 32.1504 29.6113C32.6738 29.0137 33.3672 28.7148 34.2305 28.7148C35.0938 28.7148 35.7578 28.9941 36.2227 29.5527C36.6914 30.1074 36.9258 30.8594 36.9258 31.8086V32.2656H32.0508V31.3809H35.8008V31.293C35.8008 30.8242 35.6738 30.4297 35.4199 30.1094C35.166 29.7891 34.7793 29.6289 34.2598 29.6289C33.6777 29.6289 33.2383 29.8496 32.9414 30.291C32.6484 30.7324 32.502 31.2734 32.502 31.9141V32.1016C32.502 32.7422 32.6562 33.2832 32.9648 33.7246C33.2773 34.166 33.7598 34.3867 34.4121 34.3867C34.8145 34.3867 35.1602 34.3008 35.4492 34.1289C35.7383 33.957 35.9727 33.7539 36.1523 33.5195L36.873 34.0996C36.6738 34.3926 36.3633 34.666 35.9414 34.9199C35.5234 35.1738 35.0137 35.3008 34.4121 35.3008C33.4277 35.3008 32.6738 35.0039 32.1504 34.4102C31.627 33.8125 31.3652 33.043 31.3652 32.1016Z" fill="#9A9A9A"/>
</svg>
