<svg width="19" height="19" viewBox="0 0 19 19" fill="none" xmlns="http://www.w3.org/2000/svg">
<path fill-rule="evenodd" clip-rule="evenodd" d="M12.2059 4.4674C12.0967 4.29295 11.9359 4.15688 11.7457 4.07812C11.5556 3.99937 11.3456 3.98186 11.1451 4.02803L9.72166 4.35499C9.57578 4.38851 9.4242 4.38851 9.27832 4.35499L7.85491 4.02803C7.65435 3.98186 7.44439 3.99937 7.25425 4.07812C7.06411 4.15688 6.90326 4.29295 6.79407 4.4674L6.01824 5.70557C5.93907 5.83224 5.8322 5.93911 5.70553 6.01907L4.46737 6.7949C4.29321 6.90399 4.15734 7.06458 4.07861 7.2544C3.99987 7.44421 3.98218 7.65383 4.02799 7.85415L4.35495 9.27915C4.38836 9.42478 4.38836 9.57607 4.35495 9.72169L4.02799 11.1459C3.982 11.3463 3.9996 11.5561 4.07835 11.7461C4.15709 11.9361 4.29306 12.0968 4.46737 12.2059L5.70553 12.9818C5.8322 13.0609 5.93907 13.1678 6.01903 13.2945L6.79487 14.5327C7.01812 14.8897 7.44403 15.0662 7.85491 14.972L9.27832 14.6451C9.4242 14.6115 9.57578 14.6115 9.72166 14.6451L11.1459 14.972C11.3463 15.018 11.5561 15.0004 11.7461 14.9217C11.936 14.8429 12.0968 14.707 12.2059 14.5327L12.9817 13.2945C13.0609 13.1678 13.1678 13.0609 13.2944 12.9818L14.5334 12.2059C14.7077 12.0967 14.8436 11.9358 14.9222 11.7456C15.0008 11.5555 15.0182 11.3456 14.972 11.1451L14.6458 9.72169C14.6123 9.57582 14.6123 9.42424 14.6458 9.27836L14.9728 7.85415C15.0188 7.65379 15.0014 7.44406 14.9228 7.2541C14.8442 7.06413 14.7084 6.90335 14.5342 6.79411L13.2952 6.01828C13.1688 5.93897 13.0618 5.83206 12.9825 5.70557L12.2059 4.4674ZM11.8077 7.73461C11.8567 7.64457 11.8688 7.53905 11.8415 7.44025C11.8143 7.34144 11.7498 7.25707 11.6616 7.20486C11.5734 7.15266 11.4684 7.1367 11.3686 7.16035C11.2689 7.184 11.1822 7.2454 11.1269 7.33165L9.05666 10.8356L7.80662 9.63857C7.76953 9.60049 7.72516 9.57027 7.67614 9.54971C7.62713 9.52916 7.57447 9.51868 7.52132 9.51891C7.46817 9.51915 7.41561 9.53008 7.36677 9.55106C7.31794 9.57205 7.27383 9.60265 7.23708 9.64105C7.20033 9.67945 7.17168 9.72486 7.15286 9.77457C7.13404 9.82428 7.12542 9.87727 7.12752 9.93038C7.12962 9.98349 7.14239 10.0356 7.16508 10.0837C7.18777 10.1318 7.21991 10.1748 7.25957 10.2102L8.86982 11.7531C8.91292 11.7943 8.96477 11.8253 9.0215 11.8436C9.07823 11.862 9.13838 11.8673 9.19745 11.8591C9.25652 11.851 9.31299 11.8296 9.36263 11.7966C9.41228 11.7636 9.45382 11.7197 9.48416 11.6684L11.8077 7.73461Z" fill="#BF5700"/>
</svg>
